<svg xmlns="http://www.w3.org/2000/svg" viewBox="-180 -180 600 650"><defs><linearGradient id="fur" gradientUnits="userSpaceOnUse" x1="-40" y1="-60" x2="40" y2="75"><stop stop-color="#F1AC58"/><stop offset=".48" stop-color="#E8893A"/><stop offset="1" stop-color="#CC6B2C"/></linearGradient><linearGradient id="cream" gradientUnits="userSpaceOnUse" x1="0" y1="-15" x2="0" y2="40"><stop stop-color="#FFEDD1"/><stop offset="1" stop-color="#F0D4A6"/></linearGradient><radialGradient id="volume_head_base" gradientUnits="userSpaceOnUse" cx="-15" cy="-25" r="105"><stop stop-color="#F4B45D"/><stop offset="1" stop-color="#D78032"/></radialGradient><radialGradient id="volume_cream_muzzle" gradientUnits="userSpaceOnUse" cx="-10" cy="1" r="62"><stop stop-color="#FFF0D4"/><stop offset="1" stop-color="#E4C395"/></radialGradient></defs><g id="left_eye" transform="translate(-37 -1)" opacity="1"><defs><clipPath id="left_eye_clip"><path d="M -20 0 C -22 -11 -12 -20 0 -19 C 13 -18 22 -7 21 2 C 19 12 9 18 -2 17 C -14 16 -19 8 -20 0 Z"/></clipPath></defs><g clip-path="url(#left_eye_clip)"><path id="left_eye_white" d="M -20 0 C -22 -11 -12 -20 0 -19 C 13 -18 22 -7 21 2 C 19 12 9 18 -2 17 C -14 16 -19 8 -20 0 Z" fill="url(#cream)" opacity="1" stroke="#4A2C25" stroke-width="1.3" stroke-linecap="round"/><g id="left_gaze_drift" transform="translate(0 0)" opacity="1"><g id="left_pupil" transform="translate(0 0)" opacity="1"><ellipse id="left_iris" cx="3" cy="0" rx="14.5" ry="16.2" fill="#D99A24" stroke="none" stroke-width="1"/><ellipse id="left_pupil_dark" cx="4" cy="-0.3" rx="9.3" ry="13.5" fill="#251C13" stroke="none" stroke-width="1"/><ellipse id="left_catchlight" cx="1" cy="-8.5" rx="3" ry="3.8" fill="#FFF9E9" stroke="none" stroke-width="1"/><ellipse id="left_catchlight_small" cx="8" cy="6" rx="1.4" ry="1.5" fill="#FFF9E9" stroke="none" stroke-width="1"/></g></g><g id="left_expression_lid" transform="translate(0 0)" opacity="1"><g id="left_upper_eyelid" transform="translate(0 -26)" opacity="1"><path id="left_lid_top" d="M -25 -80 L 25 -80 L 25 0 C 8 -5 -8 -5 -25 0 Z" fill="#EFA54F" opacity="1" stroke="none" stroke-width="1" stroke-linecap="round"/><path id="left_lid_edge" d="M -25 0 C -8 -5 8 -5 25 0" fill="none" opacity="1" stroke="#A94E2B" stroke-width="0.65" stroke-linecap="round"/></g></g><g id="left_lower_eyelid" transform="translate(0 24)" opacity="1"><path id="left_lid_bottom" d="M -23 0 C -7 6 7 6 23 0 L 23 18 L -23 18 Z" fill="#EFA54F" opacity="1" stroke="none" stroke-width="1" stroke-linecap="round"/><path id="left_closed_eye_line" d="M -23 0 C -7 6 7 6 23 0" fill="none" opacity="1" stroke="#4A2C25" stroke-width="0.85" stroke-linecap="round"/></g></g></g></svg>