<svg xmlns="http://www.w3.org/2000/svg" viewBox="-180 -180 600 650"><defs><linearGradient id="fur" gradientUnits="userSpaceOnUse" x1="-40" y1="-60" x2="40" y2="75"><stop stop-color="#F1AC58"/><stop offset=".48" stop-color="#E8893A"/><stop offset="1" stop-color="#CC6B2C"/></linearGradient><linearGradient id="cream" gradientUnits="userSpaceOnUse" x1="0" y1="-15" x2="0" y2="40"><stop stop-color="#FFEDD1"/><stop offset="1" stop-color="#F0D4A6"/></linearGradient><radialGradient id="volume_head_base" gradientUnits="userSpaceOnUse" cx="-15" cy="-25" r="105"><stop stop-color="#F4B45D"/><stop offset="1" stop-color="#D78032"/></radialGradient><radialGradient id="volume_cream_muzzle" gradientUnits="userSpaceOnUse" cx="-10" cy="1" r="62"><stop stop-color="#FFF0D4"/><stop offset="1" stop-color="#E4C395"/></radialGradient></defs><g id="right_ear" transform="translate(59 -44)" opacity="1"><path id="right_ear_outer" d="M 18 25 C 28 4 31 -33 25 -59 C 24 -64 20 -64 16 -61 C -1 -50 -20 -33 -32 -19 Z" fill="url(#fur)" opacity="1" stroke="#A94E2B" stroke-width="0.65" stroke-linecap="round"/><g id="right_inner_ear" transform="translate(0 0)" opacity="1"><path id="right_inner" d="M 20 12 C 27 -8 27 -40 20 -54 C 7 -46 -10 -29 -22 -14 C -2 -22 11 -6 20 12 Z" fill="#E7A0A0" opacity="1" stroke="none" stroke-width="1" stroke-linecap="round"/><path id="right_ear_light" d="M 15 5 C 10 -1 7 -2 1 -1 L 12 -14 L -3 -5 L 5 -20 L -10 -6 L -19 -9 L -7 4 Z" fill="url(#cream)" opacity="0.68" stroke="none" stroke-width="1" stroke-linecap="round"/></g></g></svg>